# xmcd
#
# Track frame offsets: 
#        150
#        11228
#        26033
#
# Disc length: 619 seconds
#
# Revision: 0
# Processed by: cddbd v1.5.2PL0 Copyright (c) Steve Scherf et al.
# Submitted via: ExactAudioCopy v1.0b4
#
DISCID=1e026903
DTITLE=Nashville Sting - Tulsa Time
DYEAR=2002
DGENRE=Country
TTITLE0=Tulsa Time
TTITLE1=If yiur phone don t ring
TTITLE2=Mary had a littloe lamp
EXTD=
EXTT0=
EXTT1=
EXTT2=
PLAYORDER=
